<svg viewBox="0 0 30 31" fill="none" xmlns="http://www.w3.org/2000/svg">
  <path
    fill-rule="evenodd"
    clip-rule="evenodd"
    d="M15 2.0625C7.57868 2.0625 1.5625 8.07868 1.5625 15.5C1.5625 22.9214 7.57868 28.9375 15 28.9375C22.4214 28.9375 28.4375 22.9214 28.4375 15.5C28.4375 8.07868 22.4214 2.0625 15 2.0625ZM9.41305 15.4621C9.04694 15.096 8.45335 15.096 8.08722 15.4621C7.72111 15.8282 7.72111 16.4218 8.08722 16.7879L11.8372 20.5379C12.2034 20.904 12.797 20.904 13.163 20.5379L21.913 11.7879C22.2791 11.4218 22.2791 10.8282 21.913 10.4621C21.5469 10.096 20.9534 10.096 20.5873 10.4621L12.5001 18.5491L9.41305 15.4621Z"
    fill="currentColor"
  />
</svg>