<svg width="350" height="220" viewBox="0 0 350 220" fill="none" xmlns="http://www.w3.org/2000/svg">
<rect width="350" height="220" fill="white"/>
<path d="M243.604 59.9832L106.364 89.2383C99.8278 90.8733 90.0171 95.7733 90.0171 110.502V137.707C90.0171 148.058 96.6539 158.918 110.397 159.74H239.704C250.837 159.105 259.983 152.357 259.983 137.707V110.502C259.983 99.3189 254.201 88.4182 237.917 88.4182H144.817L245.603 66.314C247.35 65.761 248.319 63.8963 247.765 62.1473C247.32 60.7318 246.014 59.8267 244.605 59.8267C244.273 59.8267 243.937 59.8777 243.604 59.9832ZM208.981 137.707V110.502C208.981 105.366 207.101 98.1399 201.761 93.4985H237.917C248.804 93.4985 254.907 101.333 254.907 110.502V137.707C254.907 147.15 248.654 154.71 237.917 154.71H201.602C206.227 151.092 208.981 145.533 208.981 137.707ZM173.361 138.265C170.351 135.252 168.822 131.56 168.822 127.295V102.645C168.822 101.65 169.159 100.806 169.822 100.142C170.488 99.4771 171.328 99.142 172.324 99.142C173.298 99.142 174.135 99.4754 174.816 100.132C175.503 100.799 175.852 101.645 175.852 102.645V114.282C178.322 112.624 181.168 111.781 184.323 111.781C188.547 111.781 192.235 113.308 195.279 116.321C196.786 117.809 197.931 119.494 198.686 121.328C199.443 123.16 199.823 125.166 199.823 127.295C199.823 131.596 198.293 135.288 195.279 138.268C192.235 141.28 188.547 142.808 184.323 142.808C180.063 142.808 176.374 141.28 173.361 138.265ZM122.553 102.645C122.553 101.648 122.89 100.806 123.555 100.142C124.218 99.4771 125.059 99.142 126.057 99.142C127.029 99.142 127.868 99.4754 128.548 100.132C129.236 100.801 129.585 101.645 129.585 102.645V127.295C129.585 131.596 128.056 135.288 125.042 138.268C121.994 141.28 118.307 142.808 114.084 142.808C109.824 142.808 106.135 141.28 103.122 138.265C100.11 135.252 98.5834 131.56 98.5834 127.295C98.5834 123.031 100.11 119.339 103.122 116.322C106.135 113.311 109.822 111.781 114.084 111.781C117.203 111.781 120.051 112.62 122.553 114.276V102.645ZM138.003 138.265C134.991 135.25 133.464 131.56 133.464 127.296C133.464 123.031 134.991 119.341 138.003 116.324C141.014 113.311 144.703 111.781 148.963 111.781C153.189 111.781 156.875 113.308 159.921 116.322C162.935 119.341 164.463 123.031 164.463 127.296V139.303C164.463 140.264 164.118 141.098 163.437 141.78C162.757 142.462 161.924 142.808 160.963 142.808C159.982 142.808 159.141 142.462 158.459 141.78C158.003 141.322 157.696 140.795 157.544 140.205C156.482 140.916 155.35 141.491 154.172 141.92C152.553 142.51 150.802 142.808 148.963 142.808C144.703 142.808 141.014 141.28 138.003 138.265ZM227.805 111.657V121.541H217.935C216.065 121.541 214.551 123.058 214.551 124.928C214.551 126.798 216.065 128.315 217.935 128.315H227.805V138.194C227.805 140.063 229.322 141.581 231.19 141.581C233.058 141.581 234.575 140.063 234.575 138.194V128.315H244.445C246.313 128.315 247.83 126.798 247.83 124.928C247.83 123.058 246.313 121.541 244.445 121.541H234.575V111.657C234.575 109.786 233.058 108.272 231.19 108.272C229.322 108.272 227.805 109.786 227.805 111.657ZM145.638 119.49C144.613 119.94 143.71 120.552 142.957 121.314C142.204 122.075 141.598 122.983 141.153 124.014C140.714 125.037 140.492 126.141 140.492 127.295C140.492 128.448 140.714 129.551 141.153 130.573C141.598 131.606 142.204 132.514 142.957 133.275C143.708 134.035 144.611 134.648 145.638 135.099C147.681 135.992 150.217 135.994 152.261 135.099C153.288 134.651 154.194 134.032 154.959 133.26C155.72 132.491 156.332 131.58 156.773 130.558C157.211 129.545 157.434 128.446 157.434 127.295C157.434 126.144 157.211 125.045 156.773 124.03C156.331 123.007 155.719 122.097 154.957 121.328C154.197 120.559 153.289 119.941 152.261 119.49C151.241 119.045 150.131 118.818 148.965 118.818C147.778 118.818 146.659 119.045 145.638 119.49ZM180.998 119.49C179.971 119.941 179.066 120.555 178.317 121.314C177.562 122.073 176.957 122.983 176.513 124.016C176.074 125.037 175.852 126.141 175.852 127.293C175.852 128.45 176.074 129.554 176.513 130.573C176.957 131.606 177.562 132.514 178.315 133.273C179.066 134.035 179.971 134.651 180.998 135.099C183.039 135.994 185.577 135.992 187.621 135.099C188.648 134.651 189.555 134.03 190.317 133.26C191.08 132.487 191.691 131.579 192.133 130.558C192.573 129.545 192.794 128.446 192.794 127.293C192.794 126.143 192.573 125.044 192.133 124.031C191.689 123.007 191.077 122.099 190.317 121.328C189.555 120.559 188.648 119.941 187.621 119.49C186.599 119.045 185.489 118.818 184.323 118.818C183.138 118.818 182.019 119.045 180.998 119.49ZM110.759 119.49C109.73 119.941 108.828 120.555 108.074 121.314C107.323 122.076 106.716 122.987 106.276 124.014C105.836 125.037 105.613 126.141 105.613 127.293C105.613 128.45 105.836 129.554 106.276 130.573C106.716 131.602 107.323 132.511 108.074 133.273C108.828 134.035 109.73 134.648 110.759 135.099C112.802 135.994 115.34 135.994 117.382 135.099C118.409 134.651 119.317 134.03 120.078 133.261C120.84 132.491 121.45 131.582 121.892 130.558C122.332 129.545 122.553 128.446 122.553 127.293C122.553 126.143 122.332 125.044 121.892 124.03C121.45 123.007 120.84 122.099 120.078 121.328C119.317 120.557 118.41 119.941 117.382 119.49C116.362 119.045 115.252 118.818 114.084 118.818C112.899 118.818 111.779 119.045 110.759 119.49Z" fill="url(#paint0_linear_384_7755)"/>
<linearGradient id="paint0_linear_384_7755" x1="90.0171" y1="109.808" x2="259.983" y2="109.808" gradientUnits="userSpaceOnUse">
<stop stop-color="#00BDD2"/>
<stop offset="1" stop-color="#86DD25"/>
</linearGradient>
</svg>
