<svg width="350" height="220" viewBox="0 0 350 220" fill="none" xmlns="http://www.w3.org/2000/svg">
<rect width="350" height="220" fill="white"/>
<path d="M121.25 55.2153C104 55.2153 90.0097 69.2067 90.0097 86.4588C90.0097 95.8439 94.1722 104.263 100.724 109.987C92.7163 116.971 88.7909 127.546 90.3285 138.059C91.8662 148.573 98.6404 157.585 108.312 161.982C117.984 166.38 129.228 165.561 138.161 159.808C147.093 154.054 152.49 144.155 152.487 133.53C152.499 124.5 148.476 115.841 141.759 110.003C148.562 104.078 152.48 95.4804 152.473 86.4588C152.491 69.2067 138.5 55.2153 121.25 55.2153ZM114.467 71.3072C115.425 71.3119 116.298 71.8591 116.72 72.7196C117.144 71.8613 118.015 71.3152 118.973 71.3072C119.933 71.3106 120.808 71.858 121.23 72.7196C121.654 71.8613 122.526 71.3152 123.483 71.3072C124.479 71.3072 125.321 71.8941 125.736 72.7196C126.16 71.8613 127.126 71.3152 128.084 71.3072C129.445 71.3574 130.539 72.4959 130.539 73.8577C130.539 75.2195 129.445 76.3164 128.084 76.3667C127.125 76.3619 126.158 75.8147 125.736 74.9543C125.312 75.8125 124.441 76.3587 123.483 76.3667C122.524 76.3627 121.651 75.8153 121.23 74.9543C120.805 75.8136 119.932 76.36 118.973 76.3667C118.014 76.3619 117.142 75.8147 116.72 74.9543C116.525 75.3465 116.235 75.6839 115.876 75.9354C116.576 76.4059 116.995 77.1926 116.996 78.0351C116.995 78.8775 116.576 79.6642 115.876 80.1347C117.36 81.1404 117.36 83.3259 115.876 84.3316C116.184 84.532 116.429 84.8083 116.63 85.1295C117.09 84.4001 117.864 83.9443 118.727 83.9498C119.633 83.9498 120.431 84.4264 120.874 85.1448C121.857 83.5423 124.186 83.5423 125.169 85.1448C126.513 82.9774 129.824 83.8983 129.824 86.4466C129.824 88.9949 126.513 89.9469 125.169 87.7796C124.186 89.3821 121.857 89.3821 120.874 87.7796C119.881 89.3864 117.569 89.4012 116.599 87.7802C116.416 88.0756 116.169 88.3426 115.876 88.5316C117.364 89.537 117.364 91.7256 115.876 92.731C117.36 93.7367 117.36 95.9222 115.876 96.9279C116.246 97.1731 116.537 97.5112 116.72 97.9084C117.145 97.0515 118.016 96.507 118.973 96.4996C119.932 96.5025 120.807 97.0481 121.23 97.9084C121.655 97.0515 122.526 96.507 123.483 96.4996C124.479 96.4996 125.321 97.0829 125.736 97.9084C126.161 97.0515 127.127 96.507 128.084 96.4996C129.429 96.57 130.547 97.6807 130.547 99.0276C130.547 100.374 129.429 101.486 128.084 101.556C127.126 101.552 126.159 101.006 125.736 100.147C125.311 101.004 124.44 101.549 123.483 101.556C122.525 101.552 121.652 101.006 121.23 100.147C120.804 101.005 119.931 101.55 118.973 101.556C118.015 101.552 117.143 101.006 116.72 100.147C116.295 101.004 115.424 101.533 114.467 101.54C111.975 101.53 110.993 98.324 113.056 96.9279C111.572 95.9222 111.572 93.7367 113.056 92.731C111.569 91.7256 111.569 89.537 113.056 88.5316C111.569 87.5262 111.569 85.337 113.056 84.3316C111.572 83.3259 111.572 81.1404 113.056 80.1347C111.569 79.1294 111.569 76.9407 113.056 75.9354C110.993 74.5393 111.975 71.317 114.467 71.3072ZM114.473 118.374C115.432 118.379 116.305 118.926 116.727 119.787C117.151 118.928 118.022 118.382 118.98 118.374C119.939 118.378 120.815 118.925 121.237 119.787C121.661 118.928 122.532 118.382 123.49 118.374C124.485 118.374 125.328 118.961 125.743 119.787C126.167 118.928 127.133 118.382 128.09 118.374C129.452 118.425 130.545 119.563 130.545 120.925C130.545 122.287 129.452 123.384 128.09 123.434C127.132 123.43 126.164 122.882 125.743 122.021C125.319 122.88 124.448 123.426 123.49 123.434C122.531 123.43 121.658 122.882 121.237 122.021C120.812 122.881 119.938 123.428 118.98 123.434C118.021 123.43 117.148 122.882 116.727 122.021C116.532 122.414 116.242 122.751 115.883 123.002C116.582 123.473 117.002 124.26 117.003 125.102C117.002 125.945 116.582 126.732 115.883 127.202C117.367 128.208 117.367 130.393 115.883 131.399C116.191 131.599 116.436 131.875 116.636 132.197C117.097 131.467 117.871 131.027 118.734 131.033C119.639 131.033 120.438 131.509 120.88 132.228C121.864 130.625 124.193 130.625 125.176 132.228C126.519 130.06 129.831 130.981 129.831 133.53C129.831 136.078 126.519 137.03 125.176 134.863C124.193 136.465 121.864 136.465 120.88 134.863C119.888 136.469 117.575 136.484 116.606 134.863C116.422 135.159 116.175 135.41 115.883 135.599C117.371 136.604 117.371 138.793 115.883 139.799C117.367 140.804 117.367 142.989 115.883 143.995C116.253 144.24 116.544 144.579 116.727 144.976C117.152 144.119 118.023 143.574 118.98 143.567C119.939 143.57 120.814 144.116 121.237 144.976C121.662 144.119 122.533 143.574 123.49 143.567C124.485 143.567 125.328 144.151 125.743 144.976C126.168 144.119 127.133 143.574 128.09 143.567C129.436 143.637 130.554 144.748 130.554 146.095C130.554 147.442 129.436 148.553 128.09 148.623C127.132 148.619 126.165 148.073 125.743 147.214C125.318 148.071 124.447 148.616 123.49 148.623C122.532 148.619 121.659 148.073 121.237 147.214C120.811 148.072 119.938 148.617 118.98 148.623C118.022 148.619 117.149 148.073 116.727 147.214C116.302 148.071 115.43 148.616 114.473 148.623C111.981 148.613 110.999 145.391 113.063 143.995C111.579 142.989 111.579 140.804 113.063 139.799C111.576 138.793 111.576 136.604 113.063 135.599C111.576 134.593 111.576 132.404 113.063 131.399C111.579 130.393 111.579 128.208 113.063 127.202C111.576 126.197 111.576 124.008 113.063 123.002C110.999 121.606 111.981 118.384 114.473 118.374Z" fill="#057382"/>
<path d="M189.717 136.032C188.576 136.032 187.709 135.735 187.114 135.14C186.568 134.545 186.296 133.751 186.296 132.759V90.9538H172.908C170.925 90.9538 169.933 89.8628 169.933 87.6808V87.1601C169.933 85.0276 170.925 83.9614 172.908 83.9614H207.195C209.128 83.9614 210.095 85.0276 210.095 87.1601V87.6808C210.095 89.8628 209.128 90.9538 207.195 90.9538H193.733V132.759C193.733 133.751 193.435 134.545 192.84 135.14C192.295 135.735 191.477 136.032 190.386 136.032H189.717ZM236.349 136.032C235.308 136.032 234.366 135.735 233.523 135.14C232.73 134.545 232.11 133.702 231.664 132.611L213.442 88.0527C213.293 87.6064 213.219 87.2097 213.219 86.8625C213.219 86.0195 213.541 85.3252 214.186 84.7797C214.83 84.2342 215.648 83.9614 216.64 83.9614H217.235C218.276 83.9614 219.094 84.2094 219.689 84.7053C220.284 85.1516 220.755 85.8707 221.103 86.8625L236.572 126.66L252.042 86.8625C252.439 85.8707 252.934 85.1516 253.529 84.7053C254.124 84.2094 254.943 83.9614 255.984 83.9614H256.504C257.496 83.9614 258.314 84.2342 258.959 84.7797C259.653 85.3252 260 86.0195 260 86.8625C260 87.2097 259.926 87.6064 259.777 88.0527L241.481 132.611C241.084 133.652 240.464 134.495 239.622 135.14C238.828 135.735 237.911 136.032 236.87 136.032H236.349Z" fill="black"/>
</svg>
