<svg width="350" height="220" viewBox="0 0 350 220" fill="none" xmlns="http://www.w3.org/2000/svg">
<rect width="350" height="220" fill="white"/>
<path d="M176.116 121.418C176.116 119.234 175.641 117.288 174.834 115.531C172.696 111.068 168.184 108.694 163.767 108.694C157.26 108.694 151.275 113.727 151.275 122.178C151.275 129.68 156.073 135.757 164.147 135.757C167.662 135.757 171.271 134.19 173.219 132.243C174.121 131.294 174.501 130.534 174.501 129.822C174.501 128.682 173.504 127.828 172.411 127.828C171.746 127.828 171.319 128.065 170.322 128.825C168.564 130.249 166.332 131.151 164.099 131.151C159.777 131.151 156.69 128.113 156.405 123.84H173.599C175.309 123.84 176.116 123.08 176.116 121.418ZM163.767 113.49C167.852 113.49 170.464 116.243 171.034 119.567H156.548C157.212 116.243 159.54 113.49 163.767 113.49Z" fill="url(#paint0_linear_384_7738)"/>
<path d="M202.572 121.418C202.572 119.234 202.097 117.288 201.289 115.531C199.152 111.068 194.64 108.694 190.223 108.694C183.716 108.694 177.731 113.727 177.731 122.178C177.731 129.68 182.528 135.757 190.603 135.757C194.117 135.757 197.727 134.19 199.674 132.243C200.577 131.294 200.957 130.534 200.957 129.822C200.957 128.682 199.959 127.828 198.867 127.828C198.202 127.828 197.774 128.065 196.777 128.825C195.02 130.249 192.787 131.151 190.555 131.151C186.233 131.151 183.146 128.113 182.861 123.84H200.054C201.764 123.84 202.572 123.08 202.572 121.418ZM190.223 113.49C194.307 113.49 196.92 116.243 197.49 119.567H183.003C183.621 116.243 185.948 113.49 190.223 113.49Z" fill="url(#paint1_linear_384_7738)"/>
<path d="M260.28 121.418C260.28 119.234 259.805 117.288 258.998 115.531C256.86 111.068 252.348 108.694 247.931 108.694C241.424 108.694 235.439 113.727 235.439 122.178C235.439 129.68 240.237 135.757 248.311 135.757C251.826 135.757 255.435 134.19 257.383 132.243C258.285 131.294 258.665 130.534 258.665 129.822C258.665 128.682 257.668 127.828 256.575 127.828C255.91 127.828 255.483 128.065 254.486 128.825C252.728 130.249 250.496 131.151 248.264 131.151C243.941 131.151 240.854 128.113 240.569 123.84H257.763C259.52 123.84 260.28 123.08 260.28 121.418ZM247.931 113.49C252.016 113.49 254.628 116.243 255.198 119.567H240.712C241.377 116.243 243.704 113.49 247.931 113.49Z" fill="url(#paint2_linear_384_7738)"/>
<path d="M233.16 111.4V133.003C233.16 134.38 232.21 135.424 230.785 135.424C229.597 135.424 228.41 134.57 228.41 133.003V111.4C228.41 110.024 229.407 108.979 230.785 108.979C231.925 109.026 233.16 109.834 233.16 111.4Z" fill="url(#paint3_linear_384_7738)"/>
<path d="M216.963 133.24C216.298 134.76 215.396 135.424 214.208 135.424C213.021 135.424 212.166 134.807 211.501 133.24C210.789 131.626 203.094 114.107 202.619 113.062C202.287 112.255 202.144 111.78 202.144 111.353C202.144 109.929 203.332 108.979 204.662 108.979C205.754 108.979 206.561 109.691 206.941 110.593C207.891 112.73 208.936 115.104 209.744 116.955C211.881 121.846 213.306 125.406 214.303 128.16C215.348 125.359 216.726 121.941 218.768 117.003C219.291 115.721 220.953 111.828 221.523 110.546C221.95 109.596 222.71 108.932 223.803 108.932C225.133 108.932 226.225 109.834 226.225 111.211C226.225 111.638 226.035 112.35 225.75 112.92C225.513 113.774 217.628 131.721 216.963 133.24Z" fill="url(#paint4_linear_384_7738)"/>
<path d="M143.391 118.617V133.003C143.391 134.38 142.394 135.424 141.016 135.424C139.829 135.424 138.641 134.57 138.641 133.003V118.38C138.641 115.484 139.449 113.205 141.111 111.638C142.821 110.024 145.338 109.122 148.758 109.122H150.136C150.99 109.122 151.655 109.359 152.083 109.739C152.558 110.166 152.795 110.831 152.795 111.495C152.795 112.635 151.94 113.822 150.373 113.822H148.473C146.573 113.822 145.338 114.249 144.531 115.056C143.723 115.958 143.391 117.098 143.391 118.617Z" fill="url(#paint5_linear_384_7738)"/>
<path d="M141.206 102.237C141.206 103.377 140.351 104.849 138.831 104.849H128.382C126.34 104.849 125.01 105.228 124.155 106.083C123.3 106.938 122.968 108.077 122.968 110.071V114.819H133.939C135.269 114.819 136.267 115.863 136.267 117.193C136.267 118.332 135.459 119.567 133.939 119.567H122.968V132.955C122.968 134.332 121.733 135.424 120.355 135.424C119.168 135.424 117.743 134.522 117.743 132.955V109.691C117.743 106.415 118.598 104.136 120.26 102.475C121.97 100.765 124.487 99.626 128.145 99.626H138.831C140.161 99.626 141.206 100.86 141.206 102.237Z" fill="url(#paint6_linear_384_7738)"/>
<path d="M281.749 117.383C282.698 120.137 283.933 124.457 284.598 127.258C285.406 124.41 286.783 120.374 287.781 117.668C288.731 115.009 289.205 113.585 290.155 110.926C290.583 109.644 291.39 108.932 292.53 108.932C293.908 108.932 295 109.834 295 111.258C295 111.638 294.905 112.16 294.525 113.157C293.433 116.148 288.256 130.487 287.258 133.145C286.688 134.665 285.833 135.329 284.646 135.329C283.458 135.329 282.461 134.57 281.986 133.145C281.464 131.531 281.084 130.439 280.181 127.733C278.994 124.125 278.139 121.086 277.474 118.57C276.809 121.134 275.526 125.312 274.719 127.78C273.864 130.392 273.532 131.341 272.914 133.098C272.439 134.522 271.537 135.282 270.302 135.282C269.114 135.282 268.212 134.522 267.69 133.098C266.882 130.866 261.373 115.626 260.47 113.11C260.138 112.16 259.995 111.685 259.995 111.211C259.995 109.691 261.183 108.884 262.512 108.884C263.557 108.884 264.46 109.501 264.887 110.878C265.79 113.537 266.312 114.914 267.262 117.62C268.165 120.137 269.352 123.792 270.397 127.211C271.109 124.457 272.249 120.564 273.294 117.383C273.864 115.721 274.244 114.534 274.719 113.252C275.384 111.543 276.286 110.783 277.521 110.783C278.756 110.783 279.659 111.496 280.324 113.252C281.131 115.579 281.321 116.006 281.749 117.383Z" fill="url(#paint7_linear_384_7738)"/>
<path d="M58.8473 88.2315C56.3775 85.5252 55.0476 83.1039 55.0476 80.1602C55.0476 77.3591 56.14 74.8902 57.9449 73.0386C59.7973 71.1395 62.6471 70 65.7343 70H109.526C112.613 70 115.416 71.1395 117.316 73.0386C119.12 74.8902 120.213 77.4065 120.213 80.1602C120.213 82.9614 119.12 85.5252 117.316 87.3769C115.463 89.276 112.613 90.5579 109.526 90.5579H88.6277C92.9023 95.0208 101.499 103.377 104.444 106.605C106.961 109.359 108.244 111.591 108.244 114.629C108.244 117.24 107.151 119.994 105.346 121.846C103.494 123.745 100.644 125.027 97.557 125.027H75.3286V139.318C75.3286 142.404 74.2362 145.205 72.3363 147.104C70.484 148.908 68.0142 150 65.2119 150C62.4096 150 60.0347 148.908 58.1824 147.104C56.2825 145.252 55.2851 142.404 55.2851 139.318V115.056C55.2851 111.638 56.235 109.312 58.0399 107.507C59.8923 105.608 62.6945 104.469 65.9243 104.469H74.6637L58.8473 88.2315Z" fill="url(#paint8_radial_384_7738)"/>
<path opacity="0.59" d="M55.2849 139.318C55.2849 142.404 56.2823 145.205 58.1822 147.104C60.0346 148.908 62.4094 150 65.2117 150C68.014 150 70.4838 148.908 72.3362 147.104C74.236 145.252 75.3284 142.404 75.3284 139.318V125.027H55.2849V139.318Z" fill="url(#paint9_linear_384_7738)"/>
<path opacity="0.8" d="M65.9241 104.469C62.6944 104.469 59.8921 105.608 58.0397 107.507C56.2348 109.359 55.2849 111.638 55.2849 115.056V125.027H75.3284H94.707L74.6635 104.469H65.9241Z" fill="url(#paint10_linear_384_7738)"/>
<path opacity="0.45" d="M74.6635 104.469L94.707 125.074H97.5093C100.597 125.074 103.446 123.792 105.299 121.893C107.104 120.042 108.196 117.288 108.196 114.677C108.196 111.638 106.914 109.407 104.396 106.653C101.452 103.424 92.9021 95.0684 88.5799 90.6055H61.127L74.6635 104.469Z" fill="url(#paint11_linear_384_7738)"/>
<path d="M58.8473 88.2315C56.3775 85.5252 55.0476 83.1039 55.0476 80.1602C55.0476 77.3591 56.14 74.8902 57.9449 73.0386C59.7973 71.1395 62.6471 70 65.7343 70H109.526C112.613 70 115.416 71.1395 117.316 73.0386C119.12 74.8902 120.213 77.4065 120.213 80.1602C120.213 82.9614 119.12 85.5252 117.316 87.3769C115.463 89.276 112.613 90.5579 109.526 90.5579H88.6277C92.9023 95.0208 101.499 103.377 104.444 106.605C106.961 109.359 108.244 111.591 108.244 114.629C108.244 117.24 107.151 119.994 105.346 121.846C103.494 123.745 100.644 125.027 97.557 125.027H75.3286V139.318C75.3286 142.404 74.2362 145.205 72.3363 147.104C70.484 148.908 68.0142 150 65.2119 150C62.4096 150 60.0347 148.908 58.1824 147.104C56.2825 145.252 55.2851 142.404 55.2851 139.318V115.056C55.2851 111.638 56.235 109.312 58.0399 107.507C59.8923 105.608 62.6945 104.469 65.9243 104.469H74.6637L58.8473 88.2315Z" fill="url(#paint12_radial_384_7738)"/>
<path d="M117.268 73.0386C115.416 71.1395 112.566 70 109.479 70H65.6867C62.5994 70 59.7971 71.1395 57.8973 73.0386C56.0924 74.8902 55 77.359 55 80.1602C55 83.1513 56.3299 85.5252 58.7997 88.2315L74.6161 104.469L94.6596 125.074H97.4619C100.549 125.074 103.399 123.792 105.251 121.893C107.056 120.042 108.149 117.288 108.149 114.677C108.149 111.638 106.866 109.407 104.349 106.653C101.404 103.424 92.8547 95.0682 88.5326 90.6053H109.431C112.518 90.6053 115.321 89.3234 117.22 87.4243C119.025 85.5727 120.118 82.9614 120.118 80.2077C120.165 77.359 119.073 74.8902 117.268 73.0386Z" fill="url(#paint13_radial_384_7738)"/>

<linearGradient id="paint0_linear_384_7738" x1="163.696" y1="135.757" x2="163.696" y2="108.729" gradientUnits="userSpaceOnUse">
<stop stop-color="#53565A"/>
<stop offset="1" stop-color="#75787B"/>
</linearGradient>
<linearGradient id="paint1_linear_384_7738" x1="190.151" y1="135.757" x2="190.151" y2="108.729" gradientUnits="userSpaceOnUse">
<stop stop-color="#53565A"/>
<stop offset="1" stop-color="#75787B"/>
</linearGradient>
<linearGradient id="paint2_linear_384_7738" x1="247.86" y1="135.757" x2="247.86" y2="108.729" gradientUnits="userSpaceOnUse">
<stop stop-color="#53565A"/>
<stop offset="1" stop-color="#75787B"/>
</linearGradient>
<linearGradient id="paint3_linear_384_7738" x1="230.785" y1="135.424" x2="230.785" y2="109.013" gradientUnits="userSpaceOnUse">
<stop stop-color="#53565A"/>
<stop offset="1" stop-color="#75787B"/>
</linearGradient>
<linearGradient id="paint4_linear_384_7738" x1="214.185" y1="135.424" x2="214.185" y2="109.007" gradientUnits="userSpaceOnUse">
<stop stop-color="#53565A"/>
<stop offset="1" stop-color="#75787B"/>
</linearGradient>
<linearGradient id="paint5_linear_384_7738" x1="145.718" y1="135.424" x2="145.718" y2="109.122" gradientUnits="userSpaceOnUse">
<stop stop-color="#53565A"/>
<stop offset="1" stop-color="#75787B"/>
</linearGradient>
<linearGradient id="paint6_linear_384_7738" x1="129.475" y1="135.424" x2="129.475" y2="99.626" gradientUnits="userSpaceOnUse">
<stop stop-color="#53565A"/>
<stop offset="1" stop-color="#75787B"/>
</linearGradient>
<linearGradient id="paint7_linear_384_7738" x1="277.498" y1="135.422" x2="277.498" y2="109.005" gradientUnits="userSpaceOnUse">
<stop stop-color="#53565A"/>
<stop offset="1" stop-color="#75787B"/>
</linearGradient>
<radialGradient id="paint8_radial_384_7738" cx="0" cy="0" r="1" gradientUnits="userSpaceOnUse" gradientTransform="translate(122.559 102.411) rotate(163.996) scale(76.6787 79.5643)">
<stop offset="0.5416" stop-color="#FC1E00"/>
<stop offset="0.8544" stop-color="#FD7B01"/>
<stop offset="1" stop-color="#FDA101"/>
</radialGradient>
<linearGradient id="paint9_linear_384_7738" x1="66.0817" y1="132.473" x2="70.8365" y2="124.271" gradientUnits="userSpaceOnUse">
<stop stop-color="#FDA101" stop-opacity="0"/>
<stop offset="0.1936" stop-color="#FB9E02" stop-opacity="0.1936"/>
<stop offset="0.3567" stop-color="#F79305" stop-opacity="0.3567"/>
<stop offset="0.5087" stop-color="#EF820B" stop-opacity="0.5087"/>
<stop offset="0.654" stop-color="#E36912" stop-opacity="0.654"/>
<stop offset="0.7946" stop-color="#D4491C" stop-opacity="0.7946"/>
<stop offset="0.9297" stop-color="#C32328" stop-opacity="0.9297"/>
<stop offset="1" stop-color="#B80C2F"/>
</linearGradient>
<linearGradient id="paint10_linear_384_7738" x1="77.0239" y1="114.65" x2="81.6061" y2="106.101" gradientUnits="userSpaceOnUse">
<stop offset="0.2" stop-color="#FC1E00" stop-opacity="0"/>
<stop offset="0.3908" stop-color="#FC4500" stop-opacity="0.2722"/>
<stop offset="0.7377" stop-color="#FD8701" stop-opacity="0.7671"/>
<stop offset="0.901" stop-color="#FDA101"/>
</linearGradient>
<linearGradient id="paint11_linear_384_7738" x1="86.2139" y1="99.7922" x2="90.3403" y2="89.575" gradientUnits="userSpaceOnUse">
<stop offset="0.12" stop-color="#B80C2F" stop-opacity="0"/>
<stop offset="0.232" stop-color="#9C0D29" stop-opacity="0.1778"/>
<stop offset="0.4729" stop-color="#65101C" stop-opacity="0.5601"/>
<stop offset="0.6527" stop-color="#431114" stop-opacity="0.8456"/>
<stop offset="0.75" stop-color="#361211"/>
</linearGradient>
<radialGradient id="paint12_radial_384_7738" cx="0" cy="0" r="1" gradientUnits="userSpaceOnUse" gradientTransform="translate(63.1255 84.499) rotate(47.0351) scale(47.6402 29.6306)">
<stop offset="0.0896245" stop-color="#C5143D"/>
<stop offset="0.9101" stop-color="#CF1540" stop-opacity="0"/>
</radialGradient>
<radialGradient id="paint13_radial_384_7738" cx="0" cy="0" r="1" gradientUnits="userSpaceOnUse" gradientTransform="translate(64.0217 68.2591) rotate(-17.8902) scale(36.4656 21.4451)">
<stop offset="0.0613497" stop-color="#F819A5"/>
<stop offset="0.2008" stop-color="#F8199D" stop-opacity="0.8515"/>
<stop offset="0.4122" stop-color="#F71988" stop-opacity="0.6262"/>
<stop offset="0.6694" stop-color="#F51966" stop-opacity="0.3522"/>
<stop offset="0.9602" stop-color="#F21937" stop-opacity="0.0423842"/>
<stop offset="1" stop-color="#F21930" stop-opacity="0"/>
</radialGradient>
</svg>
