<svg viewBox="0 0 393 23" fill="none" xmlns="http://www.w3.org/2000/svg">
  <path d="M22.688 22.0601H15.072L14.112 18.0281H8.416L7.424 22.0601H0L6.848 0.940117H15.808L22.688 22.0601ZM9.536 13.3881H13.024L11.296 6.06012L9.536 13.3881Z" fill="#78B7FA"/>
  <path d="M33.2305 0.620117C35.2572 0.620117 37.0705 0.876117 38.6705 1.38812C40.2918 1.87878 41.7212 2.62545 42.9585 3.62812L39.9505 8.42812C38.9478 7.72412 37.8918 7.15878 36.7825 6.73212C35.6945 6.30545 34.5105 6.09212 33.2305 6.09212C32.6758 6.09212 32.2278 6.13478 31.8865 6.22012C31.5665 6.30545 31.3318 6.42278 31.1825 6.57212C31.0545 6.72145 30.9905 6.89212 30.9905 7.08412C30.9905 7.34012 31.1825 7.53212 31.5665 7.66012C31.9718 7.78812 32.4732 7.92678 33.0705 8.07612L35.9825 8.74812C38.1372 9.23878 39.7585 9.96412 40.8465 10.9241C41.9558 11.8841 42.5105 13.2175 42.5105 14.9241C42.5105 16.6308 42.0945 18.0388 41.2625 19.1481C40.4305 20.2361 39.2998 21.0468 37.8705 21.5801C36.4625 22.1135 34.8625 22.3801 33.0705 22.3801C31.7265 22.3801 30.3825 22.2628 29.0385 22.0281C27.6945 21.7721 26.4465 21.4095 25.2945 20.9401C24.1425 20.4494 23.1505 19.8628 22.3185 19.1801L25.2625 14.2841C25.8812 14.7748 26.6278 15.2228 27.5025 15.6281C28.3772 16.0121 29.2838 16.3215 30.2225 16.5561C31.1612 16.7908 32.0358 16.9081 32.8465 16.9081C33.3585 16.9081 33.7638 16.8654 34.0625 16.7801C34.3612 16.6948 34.5638 16.5881 34.6705 16.4601C34.7985 16.3108 34.8625 16.1401 34.8625 15.9481C34.8625 15.6495 34.7345 15.4255 34.4785 15.2761C34.2438 15.1268 33.8065 14.9775 33.1665 14.8281L29.9665 14.1241C28.8358 13.8681 27.7585 13.5268 26.7345 13.1001C25.7105 12.6735 24.8785 12.0548 24.2385 11.2441C23.5985 10.4121 23.2785 9.29212 23.2785 7.88412C23.2785 6.43345 23.6625 5.16412 24.4305 4.07612C25.2198 2.98812 26.3505 2.14545 27.8225 1.54812C29.3158 0.92945 31.1185 0.620117 33.2305 0.620117Z" fill="#78B7FA"/>
  <path d="M65.4365 0.940117V22.0601H57.9805V0.940117H65.4365ZM52.1885 0.940117V22.0601H44.7325V0.940117H52.1885ZM62.1085 8.71612V14.1881H48.3165V8.71612H62.1085Z" fill="#78B7FA"/>
  <path d="M76.0947 16.5881H85.6628V22.0601H68.6387V0.940117H76.0947V16.5881Z" fill="#78B7FA"/>
  <path d="M88.0137 22.0601V0.940117H105.55V6.41212H95.4697V9.03612H103.598V14.0921H95.4697V16.5881H105.934V22.0601H88.0137Z" fill="#78B7FA"/>
  <path d="M128.973 0.940117L121.581 14.7321V22.0601H114.125V14.7321L106.733 0.940117H114.157L116.397 5.77212L117.901 9.61212L119.405 5.77212L121.645 0.940117H128.973Z" fill="#78B7FA"/>
  <path d="M157.601 0.940117V6.41212H151.009V22.0601H143.553V6.41212H136.929V0.940117H157.601Z" fill="#78B7FA"/>
  <path d="M181.106 0.940117L173.97 22.0601H165.106L157.97 0.940117H165.746L168.658 12.4921L169.682 16.6201L170.642 12.5561L173.618 0.940117H181.106Z" fill="#78B7FA"/>
  <path d="M210.094 22.0601H202.478L201.518 18.0281H195.822L194.83 22.0601H187.406L194.254 0.940117H203.214L210.094 22.0601ZM196.942 13.3881H200.43L198.702 6.06012L196.942 13.3881Z" fill="#78B7FA"/>
  <path d="M211.389 22.0601V0.940117H228.925V6.41212H218.845V9.03612H226.973V14.0921H218.845V16.5881H229.309V22.0601H211.389Z" fill="#78B7FA"/>
  <path d="M242.876 0.940117C245.628 0.940117 247.74 1.55878 249.212 2.79612C250.684 4.01212 251.42 5.63345 251.42 7.66012C251.42 9.98545 250.695 11.7348 249.244 12.9081C247.815 14.0815 245.724 14.6681 242.972 14.6681L242.236 15.0521H238.716V22.0601H231.42V0.940117H242.876ZM241.596 10.1561C242.385 10.1561 242.972 10.0175 243.356 9.74012C243.761 9.44145 243.964 8.92945 243.964 8.20412C243.964 7.50012 243.761 6.99878 243.356 6.70012C242.972 6.40145 242.385 6.25212 241.596 6.25212H238.716V10.1561H241.596ZM246.012 11.7241L252.604 22.0601H244.508L239.58 12.8121L246.012 11.7241Z" fill="#78B7FA"/>
  <path d="M261.439 0.940117V22.0601H253.982V0.940117H261.439Z" fill="#78B7FA"/>
  <path d="M285.407 22.0601H277.791L276.831 18.0281H271.135L270.143 22.0601H262.719L269.567 0.940117H278.527L285.407 22.0601ZM272.255 13.3881H275.743L274.015 6.06012L272.255 13.3881Z" fill="#78B7FA"/>
  <path d="M294.157 16.5881H303.725V22.0601H286.701V0.940117H294.157V16.5881Z" fill="#78B7FA"/>
  <path d="M315.324 0.620117C317.351 0.620117 319.164 0.876117 320.764 1.38812C322.386 1.87878 323.815 2.62545 325.052 3.62812L322.044 8.42812C321.042 7.72412 319.986 7.15878 318.876 6.73212C317.788 6.30545 316.604 6.09212 315.324 6.09212C314.77 6.09212 314.322 6.13478 313.98 6.22012C313.66 6.30545 313.426 6.42278 313.276 6.57212C313.148 6.72145 313.084 6.89212 313.084 7.08412C313.084 7.34012 313.276 7.53212 313.66 7.66012C314.066 7.78812 314.567 7.92678 315.164 8.07612L318.076 8.74812C320.231 9.23878 321.852 9.96412 322.94 10.9241C324.05 11.8841 324.604 13.2175 324.604 14.9241C324.604 16.6308 324.188 18.0388 323.356 19.1481C322.524 20.2361 321.394 21.0468 319.964 21.5801C318.556 22.1135 316.956 22.3801 315.164 22.3801C313.82 22.3801 312.476 22.2628 311.132 22.0281C309.788 21.7721 308.54 21.4095 307.388 20.9401C306.236 20.4494 305.244 19.8628 304.412 19.1801L307.356 14.2841C307.975 14.7748 308.722 15.2228 309.596 15.6281C310.471 16.0121 311.378 16.3215 312.316 16.5561C313.255 16.7908 314.13 16.9081 314.94 16.9081C315.452 16.9081 315.858 16.8654 316.156 16.7801C316.455 16.6948 316.658 16.5881 316.764 16.4601C316.892 16.3108 316.956 16.1401 316.956 15.9481C316.956 15.6495 316.828 15.4255 316.572 15.2761C316.338 15.1268 315.9 14.9775 315.26 14.8281L312.06 14.1241C310.93 13.8681 309.852 13.5268 308.828 13.1001C307.804 12.6735 306.972 12.0548 306.332 11.2441C305.692 10.4121 305.372 9.29212 305.372 7.88412C305.372 6.43345 305.756 5.16412 306.524 4.07612C307.314 2.98812 308.444 2.14545 309.916 1.54812C311.41 0.92945 313.212 0.620117 315.324 0.620117Z" fill="#78B7FA"/>
  <path d="M342.282 16.5881H351.85V22.0601H334.826V0.940117H342.282V16.5881Z" fill="#78B7FA"/>
  <path d="M369.413 0.940117V6.41212H362.821V22.0601H355.365V6.41212H348.741V0.940117H369.413Z" fill="#78B7FA"/>
  <path d="M382.007 0.940117C385.313 0.940117 387.809 1.85745 389.495 3.69212C391.18 5.52678 392.023 8.12945 392.023 11.5001C392.023 14.8495 391.18 17.4521 389.495 19.3081C387.809 21.1428 385.313 22.0601 382.007 22.0601H371.639V0.940117H382.007ZM380.951 16.7481C382.337 16.7481 383.255 16.3321 383.703 15.5001C384.172 14.6468 384.407 13.3135 384.407 11.5001C384.407 9.68678 384.172 8.36412 383.703 7.53212C383.255 6.67878 382.337 6.25212 380.951 6.25212H379.095V16.7481H380.951Z" fill="#78B7FA"/>
</svg>
